<svg xmlns="http://www.w3.org/2000/svg" width="64" height="64" fill="#335EEA" viewBox="0 0 24 24"><path d="M21 13.5V12h-2.086a6.964 6.964 0 00-.574-1.379l1.475-1.475-1.061-1.061-1.475 1.475A6.964 6.964 0 0012 7.086V5h-1.5v2.086a6.964 6.964 0 00-1.379.574L7.646 6.185 6.585 7.246l1.475 1.475A6.964 6.964 0 007.086 12H5v1.5h2.086a6.964 6.964 0 00.574 1.379l-1.475 1.475 1.061 1.061 1.475-1.475a6.964 6.964 0 001.379.574V19h1.5v-2.086a6.964 6.964 0 001.379-.574l1.475 1.475 1.061-1.061-1.475-1.475a6.964 6.964 0 00.574-1.379H21z"/></svg>